HIERARCHY
ROOT Hips
{
	OFFSET 0.000000 0.000000 0.000000
	CHANNELS 6 Xposition Yposition Zposition Zrotation Yrotation Xrotation 
	JOINT LHipJoint
	{
		OFFSET 0.000000 0.000000 0.000000
		CHANNELS 3 Zrotation Yrotation Xrotation
		JOINT LeftUpLeg
		{
			OFFSET 1.363060 -1.794630 0.839290
			CHANNELS 3 Zrotation Yrotation Xrotation
			JOINT LeftLeg
			{
				OFFSET 2.448110 -6.726130 0.000000
				CHANNELS 3 Zrotation Yrotation Xrotation
				JOINT LeftFoot
				{
					OFFSET 2.562200 -7.039590 0.000000
					CHANNELS 3 Zrotation Yrotation Xrotation
					JOINT LeftToeBase
					{
						OFFSET 0.157640 -0.433110 2.322550
						CHANNELS 3 Zrotation Yrotation Xrotation
						End Site
						{
							OFFSET 0.000000 0.000000 0.000000
						}
					}
				}
			}
		}
	}
	JOINT RHipJoint
	{
		OFFSET 0.000000 0.000000 0.000000
		CHANNELS 3 Zrotation Yrotation Xrotation
		JOINT RightUpLeg
		{
			OFFSET -1.305520 -1.794630 0.839290
			CHANNELS 3 Zrotation Yrotation Xrotation
			JOINT RightLeg
			{
				OFFSET -2.542530 -6.985550 0.000000
				CHANNELS 3 Zrotation Yrotation Xrotation
				JOINT RightFoot
				{
					OFFSET -2.568260 -7.056230 0.000000
					CHANNELS 3 Zrotation Yrotation Xrotation
					JOINT RightToeBase
					{
						OFFSET -0.164730 -0.452590 2.363150
						CHANNELS 3 Zrotation Yrotation Xrotation
						End Site
						{
							OFFSET 0.000000 0.000000 0.000000
						}
					}
				}
			}
		}
	}
}
MOTION
Frames: 22
Frame Time: 0.008333
1.015015 15.339694 -1.586118 -120.313537 84.443450 -92.009077 -13.650613 0.744442 -5.309881 -11.907904 9.560361 -26.124233 -0.743617 3.497738 61.106516 1.666609 8.246749 -20.197269 -2.013700 -0.000001 -46.792500 6.356456 -0.144582 -2.611884 20.527541 -0.119779 -69.595845 2.222245 -5.952116 57.583973 0.583909 6.528179 -10.020920 -0.007400 -0.000001 -27.656200
1.212166 15.322604 -1.615129 -124.335390 84.197915 -96.052484 -13.804335 0.745627 -5.313121 -11.628380 9.361089 -26.446105 -0.541939 3.667722 62.858594 1.787310 9.269308 -19.860787 -2.143500 -0.000000 -40.718900 6.326616 -0.047056 -2.712271 20.179604 -0.105637 -69.263456 2.015897 -5.952252 58.992449 0.294561 5.202384 -11.353715 -0.056200 0.000000 -28.152600
1.404892 15.310516 -1.644536 -128.616672 83.854805 -100.306845 -13.952273 0.724926 -5.299978 -11.331373 9.118384 -27.020534 -0.336665 3.851368 64.779325 1.947340 10.469212 -19.767097 -2.342600 0.000000 -33.870900 6.294389 0.033324 -2.812290 19.941092 -0.173143 -68.908606 1.849914 -5.943045 60.184756 0.009433 3.928635 -12.640701 -0.048699 -0.000000 -29.626000
1.593343 15.303362 -1.673750 -132.937874 83.418056 -104.547237 -14.087768 0.682288 -5.268747 -11.029265 8.831589 -27.842170 -0.127016 4.043923 66.817896 2.138228 11.798361 -19.855772 -2.599900 -0.000000 -27.022700 6.265169 0.099186 -2.905661 19.780768 -0.307654 -68.539357 1.721158 -5.925640 61.160119 -0.264935 2.736252 -13.859365 0.007001 0.000000 -31.690900
1.777757 15.300826 -1.702306 -137.132532 82.898051 -108.605174 -14.205127 0.618137 -5.218384 -10.736862 8.500434 -28.895393 0.088509 4.239966 68.921369 2.348857 13.196141 -20.044402 -2.895201 0.000000 -20.936101 6.243672 0.153513 -2.987574 19.665562 -0.493942 -68.163191 1.624860 -5.901490 61.931759 -0.522963 1.646625 -14.992909 0.099800 0.000000 -33.951900
1.958423 15.302496 -1.729819 -141.098303 82.312616 -112.381510 -14.299033 0.533979 -5.150199 -10.472604 8.128436 -30.156551 0.309227 4.434486 71.041861 2.566887 14.592208 -20.273065 -3.206000 -0.000000 -16.025700 6.234352 0.200223 -3.055102 19.561932 -0.717625 -67.785128 1.554813 -5.872083 62.523842 -0.760463 0.671447 -16.028852 0.217900 0.000001 -36.074001
2.135652 15.307892 -1.756107 -144.784687 81.682261 -115.832806 -14.365398 0.432229 -5.068061 -10.254655 7.726102 -31.596464 0.531691 4.623377 73.137299 2.779876 15.912844 -20.516546 -3.513900 0.000000 -12.324200 6.240716 0.243002 -3.106873 19.441066 -0.965468 -67.407448 1.504099 -5.838850 62.965795 -0.975002 -0.188911 -16.955561 0.350000 -0.000000 -37.849800
2.309792 15.316514 -1.781207 -148.177832 81.029277 -118.955908 -14.401135 0.315797 -4.977899 -10.099903 7.308980 -33.182883 0.750808 4.803394 75.167881 2.976357 17.090245 -20.768169 -3.803901 0.000000 -9.671900 6.265394 0.285310 -3.143683 19.280502 -1.227400 -67.028725 1.465849 -5.803185 63.289378 -1.166060 -0.943764 -17.765895 0.486700 -0.000000 -39.192400
2.481096 15.327986 -1.805269 -151.283972 80.374723 -121.771170 -14.404596 0.187799 -4.886786 -10.020916 6.895890 -34.881021 0.961021 4.972230 77.096561 3.146533 18.068438 -21.026155 -4.063600 0.000000 -7.838800 6.309716 0.329737 -3.168308 19.066266 -1.497091 -66.643549 1.434194 -5.766360 63.524232 -1.334818 -1.608919 -18.459177 0.621100 -0.000000 -40.114300
2.649883 15.341924 -1.828784 -154.103526 79.733965 -124.291160 -14.377861 0.049908 -4.800125 -10.019272 6.504612 -36.661969 1.158053 5.128599 78.891078 3.282551 18.807579 -21.273672 -4.277100 -0.000000 -6.721300 6.371230 0.375941 -3.183995 18.799146 -1.767613 -66.245569 1.404994 -5.729096 63.694353 -1.484370 -2.205601 -19.041869 0.749800 0.000000 -40.696100
2.816308 15.358111 -1.852081 -156.657883 79.122242 -126.551386 -14.321766 -0.095236 -4.723798 -10.098499 6.149634 -38.494687 1.337742 5.271791 80.523399 3.379906 19.287863 -21.496599 -4.432900 -0.000000 -6.178700 6.448606 0.424709 -3.196012 18.480701 -2.039025 -65.826097 1.375573 -5.692310 63.820221 -1.618046 -2.752077 -19.528955 0.871600 0.000000 -41.048100
2.980578 15.376319 -1.875762 -158.955696 78.547583 -128.570751 -14.239848 -0.246222 -4.660872 -10.253459 5.840581 -40.356392 1.497241 5.402024 81.973753 3.437209 19.509020 -21.678245 -4.522100 0.000001 -6.097700 6.537763 0.474454 -3.208923 18.122448 -2.310932 -65.377169 1.345118 -5.656322 63.914330 -1.739651 -3.265426 -19.938329 0.987500 0.000001 -41.296100
3.142803 15.396467 -1.900151 -161.019875 78.016700 -130.381037 -14.134747 -0.401443 -4.613292 -10.477739 5.581462 -42.228039 1.634761 5.520053 83.229385 3.456574 19.491548 -21.802660 -4.541300 0.000000 -6.396801 6.635438 0.524328 -3.227354 17.735856 -2.585227 -64.890922 1.313899 -5.621200 63.983667 -1.852253 -3.757033 -20.289170 1.099000 0.000000 -41.559500
3.303160 15.418388 -1.925748 -162.859481 77.528641 -131.994874 -14.010843 -0.560551 -4.579762 -10.759084 5.370298 -44.100805 1.749935 5.627127 84.285243 3.443191 19.273184 -21.856985 -4.493600 0.000000 -7.008000 6.736589 0.571959 -3.254146 17.336804 -2.861926 -64.362602 1.283354 -5.586429 64.028379 -1.958179 -4.233669 -20.597175 1.207800 0.000000 -41.936600
3.461811 15.441976 -1.953000 -164.484451 77.080133 -133.422656 -13.872025 -0.723267 -4.557519 -11.085165 5.200571 -45.972229 1.842784 5.724992 85.143694 3.405324 18.905302 -21.848018 -4.393100 -0.000000 -7.776000 6.836677 0.615208 -3.291051 16.939968 -3.140872 -63.789089 1.255292 -5.551179 64.044880 -2.058369 -4.695876 -20.873080 1.314500 0.000000 -42.492400
3.618946 15.467062 -1.982138 -165.913774 76.666261 -134.682735 -13.720806 -0.888974 -4.543098 -11.445139 5.062571 -47.840979 1.914043 5.815000 85.809497 3.352865 18.447728 -21.783619 -4.256900 -0.000001 -8.613400 6.932780 0.652998 -3.339196 16.554843 -3.423200 -63.168061 1.231464 -5.514606 64.027695 -2.152248 -5.138252 -21.122160 1.418500 0.000000 -43.251200
3.774823 15.493488 -2.013395 -167.162506 76.280780 -135.786375 -13.559523 -1.056979 -4.532285 -11.828319 4.945586 -49.711145 1.963656 5.899015 86.291204 3.296465 17.958209 -21.698628 -4.110000 -0.000001 -9.288600 7.022159 0.684111 -3.398458 16.190075 -3.708284 -62.498837 1.213424 -5.475554 63.969530 -2.238114 -5.551592 -21.342868 1.517500 -0.000000 -44.200600
3.929564 15.521001 -2.046846 -168.256295 75.915771 -136.756629 -13.388580 -1.225882 -4.520350 -12.230460 4.834507 -51.582483 1.992669 5.976847 86.593946 3.245794 17.491986 -21.603809 -3.967800 -0.000000 -9.894300 7.104680 0.708879 -3.468297 15.844375 -3.998434 -61.782341 1.201741 -5.433710 63.867438 -2.313166 -5.924100 -21.528166 1.607700 0.000000 -45.299800
4.083594 15.549452 -2.082735 -169.208099 75.564764 -137.601701 -13.209335 -1.393999 -4.503986 -12.644250 4.722054 -53.457138 1.999613 6.049902 86.723034 3.208638 17.084819 -21.546686 -3.852300 -0.000000 -10.182000 7.179171 0.726583 -3.547868 15.521098 -4.292939 -61.018732 1.196969 -5.388144 63.715453 -2.374581 -6.244553 -21.666695 1.684599 0.000000 -46.491600
4.237147 15.578613 -2.121142 -170.037637 75.221493 -138.338460 -13.021701 -1.558928 -4.479907 -13.068704 4.598842 -55.331626 1.983602 6.117502 86.677264 3.189986 16.760098 -21.545302 -3.772100 0.000000 -10.204500 7.246575 0.737629 -3.636212 15.215841 -4.593638 -60.209607 1.198600 -5.338899 63.513241 -2.419544 -6.503663 -21.744582 1.743200 -0.000000 -47.719501
4.390592 15.608271 -2.162075 -170.769307 74.881950 -138.988338 -12.825297 -1.717513 -4.445851 -13.503788 4.459465 -57.199149 1.942831 6.178727 86.450949 3.191797 16.522876 -21.613221 -3.731300 0.000000 -9.995500 7.308406 0.742650 -3.732306 14.924000 -4.902101 -59.357994 1.205680 -5.286270 63.262190 -2.446086 -6.695902 -21.748934 1.779499 0.000000 -48.937100
4.544152 15.638261 -2.205794 -171.414694 74.541795 -139.561522 -12.620410 -1.866637 -4.400363 -13.951326 4.302138 -59.049583 1.875341 6.232020 86.033875 3.213250 16.363513 -21.750453 -3.727000 -0.000000 -9.631800 7.365941 0.741792 -3.835265 14.640809 -5.220599 -58.466993 1.217176 -5.230965 62.965556 -2.453305 -6.820112 -21.669541 1.790800 -0.000000 -50.114700
